<svg width="19" height="19" viewBox="0 0 19 19" fill="none" xmlns="http://www.w3.org/2000/svg">
<path d="M1.625 7.75H17.375M5.125 1.625V3.375M13.875 1.625V3.375M4.425 17.375H14.575C15.5551 17.375 16.0452 17.375 16.4195 17.1842C16.7488 17.0165 17.0165 16.7488 17.1842 16.4195C17.375 16.0452 17.375 15.5551 17.375 14.575V6.175C17.375 5.1949 17.375 4.70486 17.1842 4.33052C17.0165 4.00123 16.7488 3.73351 16.4195 3.56574C16.0452 3.375 15.5551 3.375 14.575 3.375H4.425C3.44491 3.375 2.95486 3.375 2.58052 3.56574C2.25123 3.73351 1.98351 4.00123 1.81574 4.33052C1.625 4.70486 1.625 5.1949 1.625 6.175V14.575C1.625 15.5551 1.625 16.0452 1.81574 16.4195C1.98351 16.7488 2.25123 17.0165 2.58052 17.1842C2.95486 17.375 3.4449 17.375 4.425 17.375Z" stroke="white" stroke-width="1.75" stroke-linecap="round" stroke-linejoin="round"/>
</svg>
