<svg width="19" height="17" viewBox="0 0 19 17" fill="none" xmlns="http://www.w3.org/2000/svg">
<path d="M17.375 3.25H15.625M17.375 8.5H13M17.375 13.75H13M5.125 15.5V9.86605C5.125 9.68405 5.125 9.59305 5.10713 9.50599C5.09129 9.42881 5.06507 9.35409 5.02921 9.28382C4.98877 9.20472 4.93192 9.13367 4.81822 8.99149L1.93178 5.38348C1.81808 5.24135 1.76123 5.17028 1.72079 5.09115C1.68493 5.02094 1.65871 4.9462 1.64287 4.86898C1.625 4.78193 1.625 4.69092 1.625 4.50891V2.9C1.625 2.40996 1.625 2.16493 1.72037 1.97776C1.80426 1.81312 1.93812 1.67926 2.10276 1.59537C2.28993 1.5 2.53496 1.5 3.025 1.5H10.725C11.2151 1.5 11.4601 1.5 11.6473 1.59537C11.8119 1.67926 11.9457 1.81312 12.0296 1.97776C12.125 2.16493 12.125 2.40996 12.125 2.9V4.50891C12.125 4.69092 12.125 4.78193 12.1071 4.86898C12.0913 4.9462 12.0651 5.02094 12.0292 5.09115C11.9888 5.17028 11.9319 5.24135 11.8182 5.38348L8.93178 8.99149C8.81811 9.13367 8.76124 9.20472 8.72081 9.28382C8.68494 9.35409 8.65869 9.42881 8.64285 9.50599C8.625 9.59305 8.625 9.68405 8.625 9.86605V12.875L5.125 15.5Z" stroke="white" stroke-width="1.75" stroke-linecap="round" stroke-linejoin="round"/>
</svg>
