<svg width="28" height="28" viewBox="0 0 28 28" fill="none" xmlns="http://www.w3.org/2000/svg">
<g clip-path="url(#clip0_2151_3977)">
<path d="M23.8995 4.10047C21.2552 1.45622 17.7324 0 13.9929 0C10.2534 0 6.74477 1.45622 4.10047 4.10047C1.45622 6.74477 0 10.2605 0 14C0 17.7395 1.45622 21.2552 4.10047 23.8995C6.74477 26.5438 10.2534 28 13.9929 28C17.7324 28 21.2552 26.5438 23.8995 23.8995C26.5438 21.2552 28 17.7395 28 14C28 10.2605 26.5438 6.74477 23.8995 4.10047Z" fill="#39F300"/>
<path d="M13.9929 0.000244141C10.2583 0.00374414 6.7416 1.45947 4.10047 4.10055C1.45622 6.74485 0 10.2605 0 14.0001C0 17.7396 1.45622 21.2553 4.10047 23.8996C6.7416 26.5407 10.2583 27.9965 13.9929 28V0.000244141Z" fill="#2DC200"/>
<path d="M21.7903 6.20961C19.7094 4.12864 16.9356 2.98267 13.9927 2.98267C11.0499 2.98267 8.29028 4.12864 6.20931 6.20961C4.1284 8.29053 2.98242 11.0572 2.98242 14.0001C2.98242 16.9429 4.1284 19.7096 6.20937 21.7905C8.29023 23.8715 11.0498 25.0175 13.9927 25.0175C16.9356 25.0175 19.7094 23.8715 21.7903 21.7905C23.8712 19.7096 25.0172 16.9429 25.0172 14.0001C25.0172 11.0572 23.8712 8.29053 21.7903 6.20961Z" fill="#28AC00"/>
<path d="M13.9927 2.98279C11.0548 2.98623 8.28711 4.13177 6.20931 6.20957C4.1284 8.29048 2.98242 11.0572 2.98242 14C2.98242 16.9429 4.1284 19.7096 6.20931 21.7905C8.28711 23.8682 11.0548 25.0138 13.9927 25.0173V2.98279Z" fill="#39F300"/>
<path d="M12.325 20.167C11.76 20.167 11.2181 19.9425 10.8186 19.543L7.09467 15.8192C6.26271 14.9872 6.26271 13.6383 7.09467 12.8063C7.92669 11.9743 9.27561 11.9743 10.1076 12.8063L12.325 15.0237L17.8996 9.44904C18.7316 8.61708 20.0805 8.61708 20.9125 9.44904C21.7445 10.281 21.7445 11.6299 20.9125 12.4619L13.8315 19.543C13.432 19.9426 12.89 20.167 12.325 20.167Z" fill="white"/>
<path d="M13.9925 13.3562L12.325 15.0236L10.1076 12.8062C9.27561 11.9743 7.92669 11.9743 7.09467 12.8062C6.26271 13.6382 6.26271 14.9871 7.09467 15.8191L10.8186 19.543C11.2181 19.9426 11.76 20.167 12.325 20.167C12.89 20.167 13.432 19.9425 13.8315 19.543L13.9925 19.382L13.9925 13.3562Z" fill="white"/>
</g>
<defs>
<clipPath id="clip0_2151_3977">
<rect width="28" height="28" fill="white"/>
</clipPath>
</defs>
</svg>
