<svg width="29" height="29" viewBox="0 0 31 31" fill="none" xmlns="http://www.w3.org/2000/svg">
<path d="M18.0112 3.88334C20.4058 3.88334 22.107 3.88533 23.3976 4.05885C24.661 4.22872 25.389 4.54727 25.9205 5.07875C26.4519 5.61022 26.7705 6.33815 26.9403 7.60162C27.1139 8.89217 27.1159 10.5934 27.1159 12.988C27.1159 13.5082 27.5376 13.9299 28.0577 13.9299C28.5779 13.9299 28.9996 13.5082 28.9996 12.988V12.9172C28.9996 10.6093 28.9996 8.78126 28.8073 7.35062C28.6093 5.87827 28.1922 4.68657 27.2525 3.74675C26.3126 2.80695 25.1209 2.38987 23.6486 2.19193C22.2179 1.99957 20.39 1.99959 18.082 1.99961H18.0112C17.491 1.99961 17.0693 2.4213 17.0693 2.94147C17.0693 3.46164 17.491 3.88334 18.0112 3.88334Z" fill="white"/>
<path d="M12.9166 1.99961H12.9874C13.5076 1.99961 13.9293 2.4213 13.9293 2.94147C13.9293 3.46164 13.5076 3.88334 12.9874 3.88334C10.5928 3.88334 8.89158 3.88533 7.60103 4.05885C6.33757 4.22872 5.60963 4.54727 5.07816 5.07875C4.54669 5.61022 4.22813 6.33815 4.05826 7.60162C3.88474 8.89217 3.88275 10.5934 3.88275 12.988C3.88275 13.5082 3.46106 13.9299 2.94089 13.9299C2.42071 13.9299 1.99902 13.5082 1.99902 12.988V12.9171C1.999 10.6093 1.99899 8.78126 2.19134 7.35062C2.38928 5.87827 2.80636 4.68657 3.74617 3.74675C4.68598 2.80695 5.87769 2.38987 7.35003 2.19193C8.78067 1.99957 10.6087 1.99959 12.9166 1.99961Z" fill="white"/>
<path d="M28.0577 17.0697C28.5779 17.0697 28.9996 17.4915 28.9996 18.0116V18.0824C28.9996 20.3904 28.9996 22.2183 28.8073 23.649C28.6093 25.1213 28.1922 26.3131 27.2525 27.2529C26.3126 28.1926 25.1209 28.6097 23.6486 28.8077C22.2179 29 20.39 29 18.082 29H18.0112C17.491 29 17.0693 28.5783 17.0693 28.0581C17.0693 27.538 17.491 27.1163 18.0112 27.1163C20.4058 27.1163 22.107 27.1143 23.3976 26.9407C24.661 26.7709 25.389 26.4523 25.9205 25.9209C26.4519 25.3894 26.7705 24.6614 26.9403 23.3981C27.1139 22.1075 27.1159 20.4062 27.1159 18.0116C27.1159 17.4915 27.5376 17.0697 28.0577 17.0697Z" fill="white"/>
<path d="M3.88275 18.0117C3.88275 17.4915 3.46106 17.0698 2.94089 17.0698C2.42071 17.0698 1.99902 17.4915 1.99902 18.0117V18.0825C1.999 20.3904 1.99899 22.2184 2.19134 23.649C2.38928 25.1213 2.80636 26.3131 3.74617 27.253C4.68598 28.1927 5.87769 28.6097 7.35003 28.8078C8.78067 29 10.6087 29 12.9166 29H12.9874C13.5076 29 13.9293 28.5783 13.9293 28.0582C13.9293 27.538 13.5076 27.1163 12.9874 27.1163C10.5928 27.1163 8.89158 27.1143 7.60103 26.9408C6.33757 26.771 5.60963 26.4524 5.07816 25.9209C4.54669 25.3894 4.22813 24.6615 4.05826 23.3981C3.88474 22.1075 3.88275 20.4062 3.88275 18.0117Z" fill="white"/>
<path d="M8.08789 15.1149H14.4419V8.76087H8.08789V15.1149ZM10.2059 10.8789H12.3239V12.9969H10.2059V10.8789ZM8.08789 23.587H14.4419V17.2329H8.08789V23.587ZM10.2059 19.3509H12.3239V21.4689H10.2059V19.3509ZM22.914 8.76087H16.5599V15.1149H22.914V8.76087ZM20.796 12.9969H18.678V10.8789H20.796V12.9969ZM16.5599 17.2329H18.678V19.3509H16.5599V17.2329ZM18.678 19.3509H20.796V21.4689H18.678V19.3509ZM20.796 21.4689H22.914V23.587H20.796V21.4689ZM20.796 17.2329H22.914V19.3509H20.796V17.2329Z" fill="white"/>
</svg>
