<svg width="19" height="18" viewBox="0 0 19 18" fill="none" xmlns="http://www.w3.org/2000/svg">
<path d="M4.85254 4.78952V7.50002C4.85265 8.46408 5.0588 9.41699 5.4572 10.2949C5.8556 11.1728 6.43703 11.9554 7.16254 12.5903L9.35254 14.5065L11.5425 12.5903C12.2681 11.9554 12.8495 11.1728 13.2479 10.2949C13.6463 9.41702 13.8525 8.46409 13.8525 7.50002V4.78952L9.35254 3.10202L4.85254 4.78952ZM3.83929 3.56702L9.35254 1.50002L14.8658 3.56777C15.0087 3.62134 15.1319 3.71726 15.2189 3.84269C15.3059 3.96813 15.3525 4.11712 15.3525 4.26977V7.50002C15.3525 9.88277 14.3235 12.15 12.5303 13.7198L9.35254 16.5L6.17479 13.7198C5.28826 12.9441 4.57781 11.9878 4.09106 10.9151C3.60431 9.84238 3.35251 8.678 3.35254 7.50002V4.26977C3.3526 4.11712 3.39923 3.96813 3.4862 3.84269C3.57318 3.71726 3.69636 3.62059 3.83929 3.56702ZM7.10254 7.50002H11.6025C11.8015 7.50002 11.9922 7.57903 12.1329 7.71969C12.2735 7.86034 12.3525 8.0511 12.3525 8.25002C12.3525 8.44893 12.2735 8.63969 12.1329 8.78035C11.9922 8.921 11.8015 9.00002 11.6025 9.00002H7.10254C6.90363 9.00002 6.71286 8.921 6.57221 8.78035C6.43156 8.63969 6.35254 8.44893 6.35254 8.25002C6.35254 8.0511 6.43156 7.86034 6.57221 7.71969C6.71286 7.57903 6.90363 7.50002 7.10254 7.50002Z" fill="white"/>
</svg>
