<svg width="22" height="16" viewBox="0 0 22 16" fill="none" xmlns="http://www.w3.org/2000/svg">
<path d="M21.9116 6.63822L21.9122 12.2521C21.9122 13.8068 20.6986 15.0781 19.167 15.1701L18.9889 15.1754H3.59864C2.04393 15.1754 0.772694 13.9618 0.680661 12.4302L0.675326 12.2521L0.674561 6.63822H21.9116ZM17.9408 10.3644H15.2832L15.175 10.3717C14.7859 10.4245 14.486 10.7581 14.486 11.1617C14.486 11.5653 14.7859 11.8989 15.175 11.9517L15.2832 11.959H17.9408L18.049 11.9517C18.4381 11.8989 18.7381 11.5653 18.7381 11.1617C18.7381 10.7581 18.4381 10.4245 18.049 10.3717L17.9408 10.3644ZM18.9889 0.28772C20.5436 0.28772 21.8148 1.50138 21.9069 3.03295L21.9122 3.21103L21.9116 5.04368H0.674561L0.675326 3.21103C0.675326 1.65633 1.88898 0.385088 3.42056 0.293055L3.59864 0.28772H18.9889Z" fill="white"/>
</svg>
