<svg width="26" height="26" viewBox="0 0 26 26" fill="none" xmlns="http://www.w3.org/2000/svg">
<path d="M9.59204 23.3865H4.27692C3.10274 23.3865 2.15088 22.4347 2.15088 21.2605V13.8193C2.15088 12.6452 3.10274 11.6933 4.27692 11.6933H9.59204C10.7662 11.6933 11.7181 12.6452 11.7181 13.8193V21.2605C11.7181 22.4347 10.7662 23.3865 9.59204 23.3865Z" fill="#fff"/>
<path d="M21.2854 23.3865H15.9703C14.7961 23.3865 13.8442 22.4347 13.8442 21.2605V18.0714C13.8442 16.8972 14.7961 15.9454 15.9703 15.9454H21.2854C22.4596 15.9454 23.4114 16.8972 23.4114 18.0714V21.2605C23.4114 22.4347 22.4596 23.3865 21.2854 23.3865Z" fill="#fff"/>
<path d="M9.59204 9.56726H4.27692C3.10274 9.56726 2.15088 8.6154 2.15088 7.44122V4.25215C2.15088 3.07797 3.10274 2.1261 4.27692 2.1261H9.59204C10.7662 2.1261 11.7181 3.07797 11.7181 4.25215V7.44122C11.7181 8.6154 10.7662 9.56726 9.59204 9.56726Z" fill="#fff"/>
<path d="M21.2854 13.8193H15.9703C14.7961 13.8193 13.8442 12.8675 13.8442 11.6933V4.25213C13.8442 3.07795 14.7961 2.12609 15.9703 2.12609H21.2854C22.4596 2.12609 23.4114 3.07795 23.4114 4.25213V11.6933C23.4114 12.8675 22.4596 13.8193 21.2854 13.8193Z" fill="#fff"/>
</svg>
