<svg width="22" height="22" viewBox="0 0 22 22" fill="none" xmlns="http://www.w3.org/2000/svg">
<path fill-rule="evenodd" clip-rule="evenodd" d="M0.677898 6.31574C0.125977 7.32406 0.125977 8.54038 0.125977 10.973V12.59C0.125977 16.7366 0.125977 18.81 1.37138 20.0982C2.6168 21.3865 4.62124 21.3865 8.63016 21.3865H12.8822C16.8911 21.3865 18.8957 21.3865 20.141 20.0982C21.3864 18.81 21.3864 16.7366 21.3864 12.59V10.973C21.3864 8.54038 21.3864 7.32406 20.8345 6.31574C20.2826 5.30743 19.2743 4.68163 17.2576 3.43004L15.1316 2.11056C12.9998 0.787546 11.9339 0.126038 10.7562 0.126038C9.57848 0.126038 8.51257 0.787546 6.38083 2.11056L4.25479 3.43005C2.23815 4.68163 1.22982 5.30743 0.677898 6.31574ZM7.56713 16.3371C7.12682 16.3371 6.76987 16.6941 6.76987 17.1344C6.76987 17.5747 7.12682 17.9317 7.56713 17.9317H13.9453C14.3856 17.9317 14.7425 17.5747 14.7425 17.1344C14.7425 16.6941 14.3856 16.3371 13.9453 16.3371H7.56713Z" fill="#0095FF"/>
</svg>
