<svg width="26" height="26" viewBox="0 0 26 26" fill="none" xmlns="http://www.w3.org/2000/svg">
<path d="M12.8062 2.12622C10.0211 2.12622 7.75684 4.39046 7.75684 7.17558C7.75684 9.90754 9.89351 12.1186 12.6786 12.2143C12.7637 12.2037 12.8487 12.2037 12.9125 12.2143C12.9338 12.2143 12.9444 12.2143 12.9656 12.2143C12.9763 12.2143 12.9763 12.2143 12.9869 12.2143C15.7082 12.1186 17.8449 9.90754 17.8555 7.17558C17.8555 4.39046 15.5913 2.12622 12.8062 2.12622Z" fill="#0095FF"/>
<path d="M18.2075 15.0418C15.2417 13.0646 10.405 13.0646 7.41788 15.0418C6.06785 15.9454 5.32373 17.1679 5.32373 18.4754C5.32373 19.7829 6.06785 20.9947 7.40725 21.8877C8.89549 22.8869 10.8514 23.3865 12.8074 23.3865C14.7633 23.3865 16.7193 22.8869 18.2075 21.8877C19.5469 20.9841 20.291 19.7723 20.291 18.4541C20.2804 17.1466 19.5469 15.9348 18.2075 15.0418Z" fill="#0095FF"/>
</svg>
