<svg width="22" height="17" viewBox="0 0 22 17" fill="none" xmlns="http://www.w3.org/2000/svg">
<path d="M21.8989 6.37807V2.12598C21.8989 0.956659 20.9422 -6.10352e-05 19.7728 -6.10352e-05H2.76447C1.59515 -6.10352e-05 0.638428 0.956659 0.638428 2.12598V6.37807C1.80775 6.37807 2.76447 7.33479 2.76447 8.50412C2.76447 9.67344 1.80775 10.6302 0.638428 10.6302V14.8823C0.638428 16.0516 1.59515 17.0083 2.76447 17.0083H19.7728C20.9422 17.0083 21.8989 16.0516 21.8989 14.8823V10.6302C20.7296 10.6302 19.7728 9.67344 19.7728 8.50412C19.7728 7.33479 20.7296 6.37807 21.8989 6.37807ZM14.564 12.9688L11.2687 11.0554L7.97328 13.0751L8.8237 9.35454L5.95354 6.80328L9.78042 6.48438L11.2687 2.9764L12.7569 6.48438L16.5838 6.80328L13.7136 9.35454L14.564 12.9688Z" fill="white"/>
</svg>
